<svg width="20" height="20" viewBox="0 0 20 20" fill="none" xmlns="http://www.w3.org/2000/svg">
<g clip-path="url(#clip0_809_5688)">
<path d="M13.75 10.832C11.875 10.832 10 12.2383 10 14.582C10 16.457 11.4062 18.332 13.75 18.332C16.0938 18.332 17.5 16.457 17.5 15.0508C17.5 14.1133 17.5 13.6445 17.5 13.6445" stroke="#25AAE1" stroke-width="1.67"/>
<path d="M6.25 10.832C8.125 10.832 10 12.2383 10 14.582C10 16.457 8.59375 18.332 6.25 18.332C3.90625 18.332 2.5 16.457 2.5 15.0508C2.5 14.1133 2.5 13.6445 2.5 13.6445" stroke="#25AAE1" stroke-width="1.67"/>
<path d="M14.8246 14.168C17.7193 14.168 19.1667 12.3161 19.1667 10.4643C19.1667 7.98354 17.2368 6.7623 15.7895 6.7623C15.7895 6.45308 15.7895 5.92723 15.7895 4.44575C15.7895 2.59389 14.3421 1.66797 12.8947 1.66797C11.4474 1.66797 10 2.59389 10 4.44575C10 5.92723 10 6.60624 10 9.07538" stroke="#25AAE1" stroke-width="1.67"/>
<path d="M5.17544 14.168C2.2807 14.168 0.833333 12.3161 0.833333 10.4643C0.833333 7.98354 2.76316 6.7623 4.21053 6.7623C4.21053 6.45308 4.21053 5.92723 4.21053 4.44575C4.21053 2.59389 5.65789 1.66797 7.10526 1.66797C8.55263 1.66797 10 2.59389 10 4.44575C10 5.92723 10 6.60624 10 9.07538" stroke="#25AAE1" stroke-width="1.67"/>
</g>
<defs>
<clipPath id="clip0_809_5688">
<rect width="20" height="20" fill="white"/>
</clipPath>
</defs>
</svg>
