<svg width="20" height="20" viewBox="0 0 20 20" fill="none" xmlns="http://www.w3.org/2000/svg">
<path d="M13.4029 7.81036L17.5955 7.85604M17.5955 7.85604L14.953 5.15363C14.1023 4.28412 13.0376 3.6539 11.8661 3.32633C10.6945 2.99875 9.45737 2.98537 8.27902 3.28751C7.10066 3.58966 6.02261 4.19669 5.15324 5.04758C4.28387 5.89847 3.65382 6.96324 3.32644 8.13483M17.5955 7.85604L17.6412 3.66341M2.35845 16.3383L2.40413 12.1457M2.40413 12.1457L6.59676 12.1914M2.40413 12.1457L5.04579 14.8481C5.89654 15.7176 6.9612 16.3478 8.13274 16.6754C9.30428 17.003 10.5414 17.0164 11.7198 16.7142C12.8981 16.4121 13.9762 15.8051 14.8456 14.9542C15.7149 14.1033 16.345 13.0385 16.6724 11.8669" stroke="#25AAE1" stroke-width="1.67" stroke-linecap="square"/>
</svg>
