<svg width="48" height="48" viewBox="0 0 48 48" fill="none" xmlns="http://www.w3.org/2000/svg">
<rect width="48" height="48" rx="24" fill="#25AAE1"/>
<path d="M30 30C30.5304 30 31.0391 30.2107 31.4142 30.5858C31.7893 30.9609 32 31.4696 32 32C32 32.5304 31.7893 33.0391 31.4142 33.4142C31.0391 33.7893 30.5304 34 30 34C29.4696 34 28.9609 33.7893 28.5858 33.4142C28.2107 33.0391 28 32.5304 28 32C28 30.89 28.89 30 30 30ZM14 14H17.27L18.21 16H33C33.2652 16 33.5196 16.1054 33.7071 16.2929C33.8946 16.4804 34 16.7348 34 17C34 17.17 33.95 17.34 33.88 17.5L30.3 23.97C29.96 24.58 29.3 25 28.55 25H21.1L20.2 26.63L20.17 26.75C20.17 26.8163 20.1963 26.8799 20.2432 26.9268C20.2901 26.9737 20.3537 27 20.42 27H32V29H20C19.4696 29 18.9609 28.7893 18.5858 28.4142C18.2107 28.0391 18 27.5304 18 27C18 26.65 18.09 26.32 18.24 26.04L19.6 23.59L16 16H14V14ZM20 30C20.5304 30 21.0391 30.2107 21.4142 30.5858C21.7893 30.9609 22 31.4696 22 32C22 32.5304 21.7893 33.0391 21.4142 33.4142C21.0391 33.7893 20.5304 34 20 34C19.4696 34 18.9609 33.7893 18.5858 33.4142C18.2107 33.0391 18 32.5304 18 32C18 30.89 18.89 30 20 30ZM28.55 23L31.4142 18H19.14L21.5 23H28.55Z" fill="white"/>
</svg>
