<svg width="40" height="40" viewBox="0 0 40 40" fill="none" xmlns="http://www.w3.org/2000/svg">
<path d="M35.1071 7.00305L35.0536 6.96961L28.2885 3.63672L20.9867 13.3724L24.3461 17.8519C24.2455 19.5412 23.5291 21.135 22.3325 22.3316C21.1358 23.5283 19.542 24.2446 17.8527 24.3452L13.3733 20.9858L3.6377 28.2874L6.94285 34.9959L6.97066 35.0526L7.00418 35.106C7.18059 35.3902 7.42678 35.6245 7.71932 35.7866C8.01187 35.9488 8.34104 36.0334 8.67551 36.0323H10.4211C13.7846 36.0323 17.1151 35.3699 20.2225 34.0827C23.3299 32.7956 26.1534 30.909 28.5317 28.5307C30.91 26.1524 32.7966 23.3289 34.0837 20.2215C35.3709 17.114 36.0333 13.7835 36.0333 10.4201V8.67438C36.0344 8.3399 35.9499 8.0107 35.7877 7.71815C35.6256 7.42559 35.3913 7.17941 35.1071 7.00305ZM33.5333 10.4201C33.5333 23.1642 23.1652 33.5323 10.4211 33.5323H9.00863L6.79723 29.043L13.3738 24.1106L17.0353 26.8566H17.4519C19.9458 26.8538 22.3366 25.8619 24.1001 24.0985C25.8635 22.3351 26.8554 19.9442 26.8582 17.4504V17.0337L24.1121 13.3723L29.044 6.79617L33.5333 9.00797V10.4201Z" fill="#25AAE1"/>
</svg>
