<svg width="40" height="40" viewBox="0 0 40 40" fill="none" xmlns="http://www.w3.org/2000/svg">
<g clip-path="url(#clip0_858_243)">
<path d="M35.556 8.66602H4.44488C3.85551 8.66602 3.29028 8.90014 2.87353 9.31689C2.45678 9.73364 2.22266 10.2989 2.22266 10.8882V33.1105C2.22266 33.6998 2.45678 34.2651 2.87353 34.6818C3.29028 35.0986 3.85551 35.3327 4.44488 35.3327H35.556C36.1454 35.3327 36.7106 35.0986 37.1273 34.6818C37.5441 34.2651 37.7782 33.6998 37.7782 33.1105V10.8882C37.7782 10.2989 37.5441 9.73364 37.1273 9.31689C36.7106 8.90014 36.1454 8.66602 35.556 8.66602ZM33.8449 33.1105H6.28932L14.0671 25.066L12.4671 23.5216L4.44488 31.8216V12.5771L18.256 26.3216C18.6724 26.7355 19.2356 26.9678 19.8227 26.9678C20.4097 26.9678 20.973 26.7355 21.3893 26.3216L35.556 12.2327V31.6771L27.3782 23.4994L25.8115 25.066L33.8449 33.1105ZM5.90043 10.8882H33.756L19.8227 24.7438L5.90043 10.8882Z" fill="#25AAE1"/>
</g>
<defs>
<clipPath id="clip0_858_243">
<rect width="40" height="40" fill="white"/>
</clipPath>
</defs>
</svg>
