<svg width="44" height="16" viewBox="0 0 44 16" fill="none" xmlns="http://www.w3.org/2000/svg">
<path d="M6.87012 1C8.70209 1.00008 10.3653 1.7472 11.5723 2.9541C12.7794 4.16119 13.5264 5.82504 13.5264 7.65723C13.5263 9.48929 12.7793 11.1524 11.5723 12.3594C10.3652 13.5664 8.70218 14.3134 6.87012 14.3135H1.02832C0.518226 14.3134 0.212891 14.0082 0.212891 13.498V1.81543C0.212919 1.30536 0.51825 1.00003 1.02832 1H6.87012ZM20.832 1.33008C21.0517 0.891762 21.739 0.891135 21.9551 1.32227L27.9658 13.2861C28.1925 13.7316 27.9557 14.3133 27.4316 14.3135H15.3652C14.873 14.3132 14.6038 13.7314 14.8057 13.3291L20.832 1.33008ZM38.8047 1C40.8513 1 42.5106 2.67398 42.5107 4.74316C42.5107 5.42933 42.3266 6.07664 42.0068 6.62988C43.0831 7.39509 43.7861 8.65935 43.7861 10.0889C43.7861 12.4203 41.9178 14.3132 39.6084 14.3135H31.2793C30.7747 14.3135 30.4727 14.0082 30.4727 13.498V1.81543C30.4727 1.30534 30.7748 1 31.2793 1H38.8047Z" fill="#748394"/>
</svg>
