<svg width="24" height="24" viewBox="0 0 24 24" fill="none" xmlns="http://www.w3.org/2000/svg">
<path d="M9.6582 3.4541C10.4205 4.36556 10.9695 4.99905 11.4199 5.5127C11.9968 6.1706 12.3899 6.6084 12.8633 7.18262L13.5781 8.0498L14.3564 7.23926L16.2588 5.25684C17.2505 6.33829 18.109 7.63453 18.752 8.89062C19.5456 10.4412 19.9999 11.898 20 12.8057C20 17.2654 16.4099 21 12 21C7.53837 21 4 17.2662 4 12.8018C4.00009 11.5757 4.60307 9.93434 5.67676 8.17969L5.67773 8.17871C6.58367 6.69202 8.08726 4.96135 9.6582 3.4541Z" stroke="#ED1C24" stroke-width="2"/>
<path d="M12 17C9.75714 17 8 15.1673 8 13" stroke="#ED1C24" stroke-width="2"/>
</svg>
