<svg width="28" height="28" viewBox="0 0 28 28" fill="none" xmlns="http://www.w3.org/2000/svg">
<g clip-path="url(#clip0_1015_10830)">
<path d="M18.6515 14.6953C16.108 14.6953 13.5645 16.603 13.5645 19.7824C13.5645 22.3259 15.4721 24.8695 18.6515 24.8695C21.831 24.8695 23.7386 22.3259 23.7386 20.4183C23.7386 19.1465 23.7386 18.5106 23.7386 18.5106" stroke="#25AAE1" stroke-width="2.26545"/>
<path d="M8.47736 14.6953C11.0209 14.6953 13.5645 16.603 13.5645 19.7824C13.5645 22.3259 11.6568 24.8695 8.47736 24.8695C5.29793 24.8695 3.39027 22.3259 3.39027 20.4183C3.39027 19.1465 3.39027 18.5106 3.39027 18.5106" stroke="#25AAE1" stroke-width="2.26545"/>
<path d="M20.1092 19.2226C24.0361 19.2226 25.9996 16.7104 25.9996 14.1983C25.9996 10.8331 23.3816 9.17637 21.4182 9.17637C21.4182 8.7569 21.4182 8.04355 21.4182 6.03384C21.4182 3.5217 19.4548 2.26562 17.4913 2.26562C15.5279 2.26562 13.5645 3.5217 13.5645 6.03384C13.5645 8.04355 13.5645 8.96467 13.5645 12.3142" stroke="#25AAE1" stroke-width="2.26545"/>
<path d="M7.01966 19.2226C3.09278 19.2226 1.12934 16.7104 1.12934 14.1983C1.12934 10.8331 3.74726 9.17637 5.7107 9.17637C5.7107 8.7569 5.7107 8.04355 5.7107 6.03384C5.7107 3.5217 7.67414 2.26562 9.63758 2.26562C11.601 2.26562 13.5645 3.5217 13.5645 6.03384C13.5645 8.04355 13.5645 8.96467 13.5645 12.3142" stroke="#25AAE1" stroke-width="2.26545"/>
</g>
<defs>
<clipPath id="clip0_1015_10830">
<rect width="27.1311" height="27.1311" fill="white"/>
</clipPath>
</defs>
</svg>
