<svg width="72" height="72" viewBox="0 0 72 72" fill="none" xmlns="http://www.w3.org/2000/svg">
<path d="M36 6C42.3652 6 48.4698 8.52842 52.9707 13.0293C57.4716 17.5302 60 23.6348 60 30C60 49.5 36 66 36 66C36 66 12 49.5 12 30C12 23.6348 14.5284 17.5302 19.0293 13.0293C23.5302 8.52842 29.6348 6 36 6ZM36 21C33.6131 21 31.3236 21.9479 29.6357 23.6357C27.9479 25.3236 27 27.6131 27 30C27 32.3869 27.9479 34.6764 29.6357 36.3643C31.3236 38.0521 33.6131 39 36 39C38.3869 39 40.6764 38.0521 42.3643 36.3643C44.0521 34.6764 45 32.3869 45 30C45 27.6131 44.0521 25.3236 42.3643 23.6357C40.6764 21.9479 38.3869 21 36 21Z" fill="url(#paint0_linear_1246_8368)"/>
<defs>
<linearGradient id="paint0_linear_1246_8368" x1="36" y1="6" x2="36" y2="66" gradientUnits="userSpaceOnUse">
<stop stop-color="#23A4DC"/>
<stop offset="1" stop-color="#045795"/>
</linearGradient>
</defs>
</svg>
